HIERARCHY
ROOT Hips
{
	OFFSET 0.000000 71.427986 0.000000
	CHANNELS 6 Xposition Yposition Zposition Xrotation Yrotation Zrotation
	JOINT Pelvis
	{
		OFFSET 0.000000 0.000000 0.000000
		CHANNELS 3 Xrotation Yrotation Zrotation
		JOINT LeftUpLeg
		{
			OFFSET 6.797100 -2.508499 -1.318700
			CHANNELS 3 Xrotation Yrotation Zrotation
			JOINT LeftLeg
			{
				OFFSET 0.069008 -29.241863 0.690200
				CHANNELS 3 Xrotation Yrotation Zrotation
				JOINT LeftFoot
				{
					OFFSET -0.069008 -29.568123 -0.266800
					CHANNELS 3 Xrotation Yrotation Zrotation
					JOINT LeftToeBase
					{
						OFFSET 3.145500 -8.631000 16.059900
						CHANNELS 3 Xrotation Yrotation Zrotation
						End Site
						{
							OFFSET 0.000000 18.501587 0.000000
						}
					}
				}
			}
			JOINT Left_ShortSleeve
			{
				OFFSET 0.265923 -10.480953 1.153800
				CHANNELS 3 Xrotation Yrotation Zrotation
				End Site
				{
					OFFSET 1.725763 19.823879 0.000000
				}
			}
		}
		JOINT RightUpLeg
		{
			OFFSET -6.797100 -2.508499 -1.318700
			CHANNELS 3 Xrotation Yrotation Zrotation
			JOINT RightLeg
			{
				OFFSET -0.082453 -29.241932 0.688000
				CHANNELS 3 Xrotation Yrotation Zrotation
				JOINT RightFoot
				{
					OFFSET 0.082453 -29.568058 -0.264600
					CHANNELS 3 Xrotation Yrotation Zrotation
					JOINT RightToeBase
					{
						OFFSET -3.115300 -8.682800 16.113400
						CHANNELS 3 Xrotation Yrotation Zrotation
						End Site
						{
							OFFSET 0.000000 18.567114 0.000000
						}
					}
				}
			}
			JOINT Right_ShortSleeve
			{
				OFFSET -0.265923 -10.480953 1.153800
				CHANNELS 3 Xrotation Yrotation Zrotation
				End Site
				{
					OFFSET -1.725766 19.823910 0.000000
				}
			}
		}
	}
	JOINT Spine
	{
		OFFSET 0.000000 13.368103 0.470500
		CHANNELS 3 Xrotation Yrotation Zrotation
		JOINT Spine1
		{
			OFFSET 0.147000 13.837402 0.538800
			CHANNELS 3 Xrotation Yrotation Zrotation
			JOINT Spine2
			{
				OFFSET 0.168000 16.242897 -1.435500
				CHANNELS 3 Xrotation Yrotation Zrotation
				JOINT Neck
				{
					OFFSET 0.217200 18.631500 -1.679100
					CHANNELS 3 Xrotation Yrotation Zrotation
					JOINT Head
					{
						OFFSET 0.000000 6.599396 1.385900
						CHANNELS 3 Xrotation Yrotation Zrotation
						JOINT Hat
						{
							OFFSET -0.532200 27.220596 -10.096100
							CHANNELS 3 Xrotation Yrotation Zrotation
							End Site
							{
								OFFSET 0.000000 22.029861 0.000000
							}
						}
						JOINT HairD
						{
							OFFSET -10.777400 17.437393 -1.325900
							CHANNELS 3 Xrotation Yrotation Zrotation
							JOINT HairD1
							{
								OFFSET -3.290299 -11.051193 1.062200
								CHANNELS 3 Xrotation Yrotation Zrotation
								End Site
								{
									OFFSET 0.000000 11.579437 0.000000
								}
							}
						}
						JOINT HairB
						{
							OFFSET -10.777400 17.437393 1.467900
							CHANNELS 3 Xrotation Yrotation Zrotation
							JOINT HairB1
							{
								OFFSET -1.561200 -12.956299 3.590200
								CHANNELS 3 Xrotation Yrotation Zrotation
								End Site
								{
									OFFSET 0.000000 13.534866 0.000000
								}
							}
						}
						JOINT HairA
						{
							OFFSET 9.713100 17.437393 1.467900
							CHANNELS 3 Xrotation Yrotation Zrotation
							JOINT HairA1
							{
								OFFSET 1.561200 -12.956299 3.590200
								CHANNELS 3 Xrotation Yrotation Zrotation
								End Site
								{
									OFFSET 0.000000 13.534866 0.000000
								}
							}
						}
						JOINT HairC
						{
							OFFSET 9.713100 17.437393 -1.325900
							CHANNELS 3 Xrotation Yrotation Zrotation
							JOINT HairC1
							{
								OFFSET 3.290300 -11.051193 1.062200
								CHANNELS 3 Xrotation Yrotation Zrotation
								End Site
								{
									OFFSET 0.000000 11.579437 0.000000
								}
							}
						}
					}
				}
				JOINT LeftShoulder
				{
					OFFSET 5.101800 15.108002 -2.763700
					CHANNELS 3 Xrotation Yrotation Zrotation
					JOINT LeftArm
					{
						OFFSET 9.825497 2.506317 -1.597400
						CHANNELS 3 Xrotation Yrotation Zrotation
						JOINT LeftForeArm
						{
							OFFSET 21.966244 0.000000 0.000000
							CHANNELS 3 Xrotation Yrotation Zrotation
							JOINT LeftHand
							{
								OFFSET 33.879036 0.000000 0.000000
								CHANNELS 3 Xrotation Yrotation Zrotation
								JOINT LeftHandThumb1
								{
									OFFSET 6.715286 -2.359680 3.363841
									CHANNELS 3 Xrotation Yrotation Zrotation
									JOINT LeftHandThumb2
									{
										OFFSET 2.507072 -1.447464 1.447461
										CHANNELS 3 Xrotation Yrotation Zrotation
										JOINT LeftHandThumb3
										{
											OFFSET 2.898338 -1.673355 1.673357
											CHANNELS 3 Xrotation Yrotation Zrotation
											End Site
											{
												OFFSET -0.295959 3.727692 -0.131651
											}
										}
									}
								}
								JOINT LeftHandIndex1
								{
									OFFSET 14.190811 -0.254547 3.840278
									CHANNELS 3 Xrotation Yrotation Zrotation
									JOINT LeftHandIndex2
									{
										OFFSET 3.551727 0.000000 -0.000000
										CHANNELS 3 Xrotation Yrotation Zrotation
										JOINT LeftHandIndex3
										{
											OFFSET 2.894196 0.000000 0.000000
											CHANNELS 3 Xrotation Yrotation Zrotation
											End Site
											{
												OFFSET -1.000603 2.690872 0.366626
											}
										}
									}
								}
								JOINT LeftHandMiddle1
								{
									OFFSET 13.776489 0.000000 0.000000
									CHANNELS 3 Xrotation Yrotation Zrotation
									JOINT LeftHandMiddle2
									{
										OFFSET 3.438232 0.000000 0.000000
										CHANNELS 3 Xrotation Yrotation Zrotation
										JOINT LeftHandMiddle3
										{
											OFFSET 3.691551 0.000000 0.000000
											CHANNELS 3 Xrotation Yrotation Zrotation
											End Site
											{
												OFFSET -1.082298 3.499527 0.457670
											}
										}
									}
								}
								JOINT LeftHandRing1
								{
									OFFSET 13.966164 -0.268127 -3.067488
									CHANNELS 3 Xrotation Yrotation Zrotation
									JOINT LeftHandRing2
									{
										OFFSET 3.162567 0.000000 0.000000
										CHANNELS 3 Xrotation Yrotation Zrotation
										JOINT LeftHandRing3
										{
											OFFSET 3.324348 0.000000 0.000000
											CHANNELS 3 Xrotation Yrotation Zrotation
											End Site
											{
												OFFSET -0.861900 3.184998 0.405154
											}
										}
									}
								}
								JOINT LeftHandPinky1
								{
									OFFSET 13.131393 -0.168503 -5.746925
									CHANNELS 3 Xrotation Yrotation Zrotation
									JOINT LeftHandPinky2
									{
										OFFSET 2.849182 0.000000 0.000000
										CHANNELS 3 Xrotation Yrotation Zrotation
										JOINT LeftHandPinky3
										{
											OFFSET 2.805038 0.000000 0.000000
											CHANNELS 3 Xrotation Yrotation Zrotation
											End Site
											{
												OFFSET -0.882500 2.642609 0.325652
											}
										}
									}
								}
							}
							JOINT Left_Sleeve
							{
								OFFSET 6.592125 -0.646545 0.805568
								CHANNELS 3 Xrotation Yrotation Zrotation
								End Site
								{
									OFFSET -0.000179 20.275787 -0.000000
								}
							}
						}
					}
				}
				JOINT RightShoulder
				{
					OFFSET -5.731700 15.108002 -2.763700
					CHANNELS 3 Xrotation Yrotation Zrotation
					JOINT RightArm
					{
						OFFSET -9.825497 2.506317 -1.597400
						CHANNELS 3 Xrotation Yrotation Zrotation
						JOINT RightForeArm
						{
							OFFSET -21.966242 0.000000 0.000000
							CHANNELS 3 Xrotation Yrotation Zrotation
							JOINT RightHand
							{
								OFFSET -33.879032 0.000000 0.000000
								CHANNELS 3 Xrotation Yrotation Zrotation
								JOINT RightHandThumb1
								{
									OFFSET -6.715286 -2.359680 3.363841
									CHANNELS 3 Xrotation Yrotation Zrotation
									JOINT RightHandThumb2
									{
										OFFSET -2.507072 -1.447464 1.447461
										CHANNELS 3 Xrotation Yrotation Zrotation
										JOINT RightHandThumb3
										{
											OFFSET -2.898338 -1.673355 1.673357
											CHANNELS 3 Xrotation Yrotation Zrotation
											End Site
											{
												OFFSET 0.295959 3.727692 -0.131651
											}
										}
									}
								}
								JOINT RightHandIndex1
								{
									OFFSET -14.190811 -0.254547 3.840278
									CHANNELS 3 Xrotation Yrotation Zrotation
									JOINT RightHandIndex2
									{
										OFFSET -3.551727 0.000000 -0.000000
										CHANNELS 3 Xrotation Yrotation Zrotation
										JOINT RightHandIndex3
										{
											OFFSET -2.894196 0.000000 0.000000
											CHANNELS 3 Xrotation Yrotation Zrotation
											End Site
											{
												OFFSET 1.000603 2.690872 0.366626
											}
										}
									}
								}
								JOINT RightHandMiddle1
								{
									OFFSET -13.776489 0.000000 0.000000
									CHANNELS 3 Xrotation Yrotation Zrotation
									JOINT RightHandMiddle2
									{
										OFFSET -3.438232 0.000000 0.000000
										CHANNELS 3 Xrotation Yrotation Zrotation
										JOINT RightHandMiddle3
										{
											OFFSET -3.691551 0.000000 0.000000
											CHANNELS 3 Xrotation Yrotation Zrotation
											End Site
											{
												OFFSET 1.082298 3.499527 0.457670
											}
										}
									}
								}
								JOINT RightHandRing1
								{
									OFFSET -13.966164 -0.268127 -3.067488
									CHANNELS 3 Xrotation Yrotation Zrotation
									JOINT RightHandRing2
									{
										OFFSET -3.162567 0.000000 0.000000
										CHANNELS 3 Xrotation Yrotation Zrotation
										JOINT RightHandRing3
										{
											OFFSET -3.324348 0.000000 0.000000
											CHANNELS 3 Xrotation Yrotation Zrotation
											End Site
											{
												OFFSET 0.861900 3.184998 0.405154
											}
										}
									}
								}
								JOINT RightHandPinky1
								{
									OFFSET -13.131393 -0.168503 -5.746925
									CHANNELS 3 Xrotation Yrotation Zrotation
									JOINT RightHandPinky2
									{
										OFFSET -2.849182 0.000000 0.000000
										CHANNELS 3 Xrotation Yrotation Zrotation
										JOINT RightHandPinky3
										{
											OFFSET -2.805038 0.000000 0.000000
											CHANNELS 3 Xrotation Yrotation Zrotation
											End Site
											{
												OFFSET 0.882500 2.642609 0.325652
											}
										}
									}
								}
							}
							JOINT Right_Sleeve
							{
								OFFSET -6.592125 -0.646545 0.805568
								CHANNELS 3 Xrotation Yrotation Zrotation
								End Site
								{
									OFFSET 0.000179 20.275787 -0.000000
								}
							}
						}
					}
				}
				JOINT Bind_Right_JacketString
				{
					OFFSET -3.534800 11.969597 7.200700
					CHANNELS 3 Xrotation Yrotation Zrotation
					JOINT Bind_Right_JacketString1
					{
						OFFSET -0.319900 -6.102600 2.794100
						CHANNELS 3 Xrotation Yrotation Zrotation
						End Site
						{
							OFFSET 0.000000 6.719452 0.000000
						}
					}
				}
				JOINT Bind_Left_JacketString
				{
					OFFSET 2.904800 11.969597 7.200700
					CHANNELS 3 Xrotation Yrotation Zrotation
					JOINT Bind_Left_JacketString1
					{
						OFFSET 0.364800 -5.904503 3.186800
						CHANNELS 3 Xrotation Yrotation Zrotation
						End Site
						{
							OFFSET 0.000000 6.719513 0.000000
						}
					}
				}
				JOINT HairE
				{
					OFFSET 5.915200 17.612701 -11.592200
					CHANNELS 3 Xrotation Yrotation Zrotation
					JOINT HairE1
					{
						OFFSET 0.289200 -7.171898 -1.284500
						CHANNELS 3 Xrotation Yrotation Zrotation
						End Site
						{
							OFFSET 0.000000 7.291756 0.000000
						}
					}
				}
				JOINT HairF
				{
					OFFSET -0.864800 17.612701 -11.592200
					CHANNELS 3 Xrotation Yrotation Zrotation
					JOINT HairF1
					{
						OFFSET 0.000000 -14.087097 -2.127501
						CHANNELS 3 Xrotation Yrotation Zrotation
						End Site
						{
							OFFSET 0.000000 14.246841 0.000000
						}
					}
				}
				JOINT HairG
				{
					OFFSET -8.087700 17.612701 -11.592200
					CHANNELS 3 Xrotation Yrotation Zrotation
					JOINT HairG1
					{
						OFFSET -0.293600 -6.081398 -0.910100
						CHANNELS 3 Xrotation Yrotation Zrotation
						End Site
						{
							OFFSET 0.000000 6.156120 0.000000
						}
					}
				}
			}
		}
	}
	JOINT Pouch
	{
		OFFSET 0.000000 4.394501 10.847300
		CHANNELS 3 Xrotation Yrotation Zrotation
		End Site
		{
			OFFSET 0.000000 21.880577 0.000000
		}
	}
	JOINT Bag
	{
		OFFSET -13.229000 4.813004 -0.593300
		CHANNELS 3 Xrotation Yrotation Zrotation
		End Site
		{
			OFFSET 0.000000 21.880577 0.000000
		}
	}
	JOINT OccupyGuyFacialAnim_Joint
	{
		OFFSET 1.000000 -70.206398 -1.655000
		CHANNELS 3 Xrotation Yrotation Zrotation
		End Site
		{
			OFFSET 0.000000 21.880577 0.000000
		}
	}
}
MOTION
Frames: 4
Frame Time: 0.033333
0.198019 65.424118 1.414143 9.904516 3.832096 -1.586633 -0.000002 -0.000000 0.000000 2.136178 4.166067 -5.977635 28.124349 4.519407 0.105057 -32.608392 -1.046444 3.043992 -0.000001 0.000002 -0.000000 -0.000000 0.000001 -0.000000 -45.790626 -2.655193 -1.049510 32.496438 -9.737667 1.246936 2.974589 -14.567562 1.110412 -0.000000 -0.000000 -0.000000 -0.000003 -0.000000 0.000000 5.833218 -7.977488 2.314966 0.140402 -2.240759 0.777361 0.126930 -2.250080 0.778909 -6.188538 -1.544301 -2.819081 -6.065840 -10.756498 0.041696 0.000000 0.000000 -0.000000 0.000000 0.000000 -0.000000 0.000000 0.000000 -0.000000 0.000000 0.000000 -0.000000 -0.000000 0.000000 -0.000000 0.000000 0.000000 -0.000000 -0.000000 0.000000 -0.000000 0.000000 0.000000 -0.000000 0.000000 0.000000 -0.000000 0.609511 -1.901712 -11.225377 -8.231723 -35.251931 -60.178809 0.000003 -52.074916 0.000013 10.666207 -31.842209 2.423558 4.972935 -0.919238 4.455773 7.403977 13.561093 3.777188 0.000001 -0.000001 -0.000004 0.332612 -2.971044 -1.456198 0.830585 3.008797 -30.858265 0.000003 0.000001 -0.000002 -0.686958 0.198453 -14.655556 0.595558 2.575501 -26.036334 0.000003 0.000001 0.000001 0.933659 5.742510 -20.413965 0.491151 2.349931 -23.606363 -0.000001 0.000000 0.000001 2.244612 16.205464 -22.664091 0.579256 2.541854 -25.670853 -0.000001 -0.000000 -0.000001 0.000000 -0.000002 -0.000001 0.671316 -0.107826 12.339201 15.210614 10.500680 58.867228 0.000001 20.016455 -0.000001 -0.817883 1.974618 -0.698105 3.998975 2.832316 -3.864427 7.789864 -15.417861 -4.484060 0.000000 -0.000001 0.000001 0.387327 3.131512 0.644091 0.662454 -2.395986 30.906630 0.000001 -0.000001 0.000000 -0.709926 0.247542 13.910233 0.475064 -2.051027 26.079675 0.000000 -0.000001 0.000004 0.807595 -5.199871 19.769358 0.391787 -1.871431 23.646680 -0.000002 0.000001 -0.000003 1.997360 -15.634342 22.197596 0.462061 -2.024258 25.713757 -0.000002 0.000000 -0.000001 -0.000001 0.000001 0.000000 0.000000 0.000000 0.000000 0.000000 0.000000 0.000000 0.000000 0.000000 -0.000000 0.000000 0.000000 -0.000000 0.000000 0.000000 0.000000 0.000000 0.000000 0.000000 0.000000 0.000000 -0.000000 0.000000 0.000000 -0.000000 0.000000 0.000000 0.000000 0.000000 0.000000 0.000000 -0.000002 -0.000000 0.000000 -0.000002 -0.000000 0.000000 -0.000002 -0.000000 0.000000 
0.887542 65.168968 2.851306 9.811234 4.183180 -2.970203 -0.000000 0.000000 0.000000 -4.173775 5.706004 -3.812863 42.615053 6.937269 -0.320328 -31.950450 -1.655270 0.941910 0.000002 -0.000001 0.000000 -0.000000 -0.000001 -0.000000 -46.114241 -2.900568 -0.690787 36.317639 -9.941176 1.250050 0.185768 -14.880388 2.560477 -0.000000 -0.000002 -0.000000 0.000002 0.000000 0.000000 6.067494 -8.515454 4.081824 0.068144 -2.460550 1.105437 0.043459 -2.476498 1.104915 -6.349886 -1.643725 -2.593546 -4.870589 -10.874036 -0.991285 -0.000000 -0.000001 -0.000000 -0.000000 -0.000001 -0.000000 -0.000000 -0.000001 -0.000000 -0.000000 -0.000001 -0.000000 -0.000000 0.000001 -0.000000 -0.000000 -0.000001 -0.000000 -0.000000 0.000001 -0.000000 -0.000000 -0.000001 -0.000000 -0.000000 -0.000001 -0.000000 0.601706 -1.798656 -10.592338 -5.522849 -33.551781 -59.038297 0.000008 -59.957614 0.000003 19.228454 -22.024286 0.478657 4.882963 -1.210348 4.358564 7.461415 14.151505 3.837460 -0.000004 -0.000000 -0.000001 0.331509 -2.847313 -2.443373 0.864902 3.065421 -31.506003 0.000000 -0.000003 -0.000004 -0.720791 0.321383 -15.639265 0.631886 2.648501 -26.833612 0.000002 0.000002 -0.000001 1.004417 5.841772 -21.628076 0.519867 2.414545 -24.297652 -0.000002 0.000001 -0.000002 2.284692 16.249148 -23.623650 0.608844 2.602459 -26.330024 0.000001 0.000000 -0.000001 0.000002 -0.000003 -0.000003 0.669079 -0.266282 12.156932 17.472993 10.600569 57.649768 -0.000000 23.448722 -0.000000 0.053221 -2.389178 -1.327601 3.536140 4.346270 -3.357976 8.015855 -18.297570 -4.735686 -0.000000 -0.000002 -0.000000 0.393932 2.614298 5.771287 0.814832 -2.633635 34.378384 0.000002 0.000000 -0.000005 -0.900247 -0.286791 19.017613 0.638467 -2.355493 30.327922 -0.000000 -0.000001 -0.000003 1.139228 -5.584165 26.063481 0.521394 -2.143037 27.345668 0.000001 -0.000001 0.000004 2.164531 -15.797206 27.161919 0.594713 -2.279117 29.245760 0.000001 0.000002 0.000001 0.000001 -0.000000 0.000001 0.000001 -0.000000 0.000000 0.000001 0.000000 -0.000000 0.000001 -0.000000 -0.000000 0.000001 -0.000000 -0.000000 0.000001 -0.000000 0.000000 0.000001 0.000000 -0.000000 0.000001 -0.000000 -0.000000 0.000001 -0.000000 -0.000000 0.000001 -0.000000 0.000000 0.000001 0.000000 -0.000000 -0.000000 0.000000 0.000000 -0.000000 0.000000 0.000000 -0.000000 0.000000 0.000000 
1.392350 65.343735 4.979396 9.316931 4.749807 -4.062973 0.000000 0.000000 0.000000 -7.772244 6.613038 -1.260399 52.134349 8.836661 -0.875355 -26.540051 -2.542119 -1.363975 -0.000000 0.000001 -0.000001 -0.000000 -0.000000 -0.000000 -44.433300 -3.204610 -0.321010 38.680208 -9.996070 1.255173 -2.825657 -15.417345 3.804727 -0.000000 -0.000002 0.000000 0.000001 -0.000000 0.000000 6.520710 -9.031444 5.418993 0.047897 -2.661014 1.435487 0.010155 -2.684237 1.435029 -5.876442 -1.486389 -3.320886 -4.884562 -11.551134 -0.692547 0.000001 -0.000002 -0.000001 0.000001 -0.000002 -0.000001 0.000001 -0.000002 -0.000001 0.000001 -0.000002 -0.000000 0.000000 -0.000002 0.000000 0.000001 -0.000002 -0.000000 0.000000 -0.000002 0.000000 0.000001 -0.000002 -0.000001 0.000001 -0.000002 -0.000001 0.593988 -1.840880 -10.096340 -2.287292 -32.947893 -57.167693 0.000059 -66.533289 0.000053 27.633018 -14.432241 -3.786921 4.514303 -2.393894 3.957098 7.686449 16.555958 4.075376 0.000000 0.000006 0.000003 0.352866 -2.360252 -6.462894 1.011169 3.291829 -34.143231 -0.000000 0.000002 -0.000002 -0.836055 0.824179 -19.643334 0.790188 2.940226 -30.079781 0.000000 -0.000001 -0.000001 1.313372 6.231757 -26.573281 0.644813 2.673899 -27.112262 -0.000000 0.000001 -0.000002 2.454296 16.453623 -27.532839 0.736407 2.845466 -29.013824 0.000000 -0.000003 -0.000001 0.000001 -0.000001 -0.000000 0.672229 -0.624979 12.022405 19.564565 10.777404 56.712194 -0.000003 26.783028 0.000027 -1.609937 -5.011545 -2.937551 3.015520 6.015459 -2.780516 8.245333 -21.379882 -5.004973 0.000001 -0.000002 0.000002 0.463687 2.095844 11.441275 1.002720 -2.888856 38.276991 0.000001 -0.000001 -0.000002 -1.050218 -0.892746 24.660921 0.847611 -2.680868 35.085316 -0.000001 -0.000002 -0.000001 1.549718 -5.965603 33.026447 0.687285 -2.436953 31.495402 0.000001 0.000000 0.000002 2.368976 -16.061424 32.658833 0.761993 -2.554779 33.210869 0.000000 0.000000 -0.000003 -0.000000 -0.000000 -0.000001 0.000001 0.000001 -0.000000 0.000003 0.000001 0.000000 0.000001 0.000001 0.000000 0.000001 0.000001 0.000000 0.000001 0.000001 -0.000000 0.000003 0.000001 0.000000 0.000001 0.000001 0.000000 0.000001 0.000001 0.000000 0.000001 0.000001 -0.000000 0.000003 0.000001 0.000000 0.000000 0.000000 0.000000 0.000000 0.000000 0.000000 0.000000 0.000000 0.000000 
1.708099 65.961197 7.676720 8.502413 4.922402 -4.768476 -0.000001 0.000000 -0.000000 -11.276212 7.173364 1.236578 59.258544 9.590912 -1.437416 -16.468322 -3.473320 -2.753346 0.000002 -0.000000 0.000001 -0.000000 -0.000001 0.000000 -40.743953 -3.562396 0.259680 38.950851 -9.952358 1.267743 -5.643990 -15.589021 4.564601 -0.000000 -0.000000 -0.000000 -0.000003 0.000000 -0.000000 7.153377 -9.023449 6.162470 0.088524 -2.698611 1.683487 0.041236 -2.728559 1.685320 -5.803023 -1.514841 -3.155887 -5.043574 -12.258177 -0.610508 -0.000000 -0.000000 -0.000000 -0.000000 -0.000000 -0.000000 -0.000000 -0.000000 0.000000 -0.000000 -0.000000 0.000000 -0.000000 -0.000000 -0.000000 -0.000000 -0.000000 0.000000 -0.000000 -0.000000 -0.000000 -0.000000 -0.000000 -0.000000 -0.000000 -0.000000 -0.000000 0.588491 -1.938323 -9.691880 1.567597 -33.247339 -54.408139 0.000061 -71.924487 0.000065 34.444770 -9.619323 -8.276356 3.895189 -4.347990 3.271958 8.040987 20.536127 4.463162 -0.000000 0.000001 -0.000001 0.471630 -1.619463 -13.121156 1.275746 3.650981 -38.510550 0.000002 -0.000002 -0.000002 -0.944368 1.667540 -26.270255 1.087816 3.401921 -35.456103 0.000002 0.000001 0.000001 1.892555 6.816968 -34.769990 0.879240 3.088681 -31.773142 -0.000001 0.000002 -0.000001 2.772629 16.884151 -34.017767 0.972154 3.233664 -33.458068 0.000000 0.000001 0.000001 0.000000 0.000001 0.000002 0.672454 -0.817517 11.923208 21.170567 10.549757 56.437976 0.000001 30.309425 0.000009 -5.542027 -7.029138 -5.392637 2.468818 7.728409 -2.166415 8.466609 -24.527091 -5.280920 -0.000002 0.000001 0.000004 0.592604 1.627688 17.280380 1.214572 -3.138400 42.305037 0.000001 0.000001 0.000000 -1.137278 -1.526292 30.467630 1.091082 -2.997299 39.997741 0.000000 0.000000 -0.000001 2.014623 -6.305685 40.198252 0.880474 -2.727002 35.781865 0.000002 -0.000001 0.000005 2.620849 -16.422563 38.330356 0.954378 -2.826602 37.307275 -0.000000 -0.000001 -0.000003 0.000000 -0.000000 -0.000000 -0.000000 0.000000 -0.000000 -0.000000 -0.000001 0.000000 -0.000000 0.000000 -0.000000 -0.000000 0.000000 -0.000000 -0.000000 0.000000 -0.000000 -0.000000 -0.000001 0.000000 -0.000000 0.000000 -0.000000 -0.000000 0.000000 -0.000000 -0.000000 0.000000 -0.000000 -0.000000 -0.000001 0.000000 -0.000001 0.000000 -0.000000 -0.000001 0.000000 -0.000000 -0.000001 0.000000 -0.000000 
